<?xml version="1.0" encoding="iso-8859-1"?>
<!-- Uploaded to: SVG Repo, www.svgrepo.com, Generator: SVG Repo Mixer Tools -->
<svg height="800px" width="800px" version="1.1" id="Layer_1" xmlns="http://www.w3.org/2000/svg" xmlns:xlink="http://www.w3.org/1999/xlink" 
	 viewBox="0 0 496 496" xml:space="preserve">
<path style="fill:#0AA06E;" d="M496,293.2c0,15.2-11.2,28-26.4,28H87.2c-15.2,0-31.2-13.6-31.2-28V54.8c0-15.2,16-29.6,31.2-29.6
	h383.2c14.4,0,25.6,14.4,25.6,29.6V293.2z"/>
<path style="fill:#3CC676;" d="M440,353.2c0,15.2-16,24-31.2,24H26.4c-15.2,0-26.4-8.8-26.4-24V115.6c0-15.2,11.2-26.4,26.4-26.4
	h383.2c15.2,0,31.2,11.2,31.2,26.4v237.6H440z"/>
<path style="fill:#32BA7C;" d="M0,115.6c0-15.2,11.2-26.4,26.4-26.4h383.2c15.2,0,31.2,11.2,31.2,26.4v237.6c0,15.2-16,24-31.2,24"
	/>
<polygon style="fill:#3CC676;" points="56,313.2 56,470.8 222.4,304.4 "/>
<g>
	<path style="fill:#49D69F;" d="M360,165.2c0,6.4-5.6,12-12,12H84c-6.4,0-12-5.6-12-12l0,0c0-6.4,5.6-12,12-12h264
		C354.4,153.2,360,158.8,360,165.2L360,165.2z"/>
	<path style="fill:#49D69F;" d="M360,237.2c0,6.4-5.6,12-12,12H84c-6.4,0-12-5.6-12-12l0,0c0-6.4,5.6-12,12-12h264
		C354.4,225.2,360,230.8,360,237.2L360,237.2z"/>
	<path style="fill:#49D69F;" d="M360.8,301.2c0,7.2-5.6,12-12.8,12H87.2c-7.2,0-12.8-4.8-12.8-12l0,0c0-7.2,5.6-12,12.8-12h261.6
		C355.2,289.2,360.8,294,360.8,301.2L360.8,301.2z"/>
</g>
</svg>